# xmcd
#
# Track frame offsets: 
#        150
#        23974
#        37494
#        58827
#        75020
#        90803
#        109915
#        125756
#        145004
#        160389
#        191186
#
# Disc length: 4440 seconds
#
# Revision: 3
# Processed by: cddbd v1.5.2PL0 Copyright (c) Steve Scherf et al.
# Submitted via: ExactAudioCopy v0.99pb5
#
DISCID=9311560b
DTITLE=Bunbury - El Viaje A Ninguna Parte [CD2]
DYEAR=2004
DGENRE=Rock
TTITLE0=El Anzuelo
TTITLE1=Una Canción Triste
TTITLE2=En La Pulpería De Lucita
TTITLE3=Por Un Malnacido
TTITLE4=Voces De Tango
TTITLE5=Palo De Mayo
TTITLE6=Trinidad
TTITLE7=La Señorita Hermafrodita
TTITLE8=El Aragonés Errante
TTITLE9=Canto (El Mismo Dolor)
TTITLE10=DATA
EXTD=YEAR: 2004
EXTT0=
EXTT1=
EXTT2=
EXTT3=
EXTT4=
EXTT5=
EXTT6=
EXTT7=
EXTT8=
EXTT9=
EXTT10=
PLAYORDER=
